<?xml version="1.0" standalone="no"?>
<!DOCTYPE svg PUBLIC "-//W3C//DTD SVG 20010904//EN"
 "http://www.w3.org/TR/2001/REC-SVG-20010904/DTD/svg10.dtd">
<svg version="1.0" xmlns="http://www.w3.org/2000/svg"
 width="178.000000pt" height="178.000000pt" viewBox="0 0 178.000000 178.000000"
 preserveAspectRatio="xMidYMid meet">
<metadata>
Created by potrace 1.11, written by Peter Selinger 2001-2013
</metadata>
<g transform="translate(0.000000,178.000000) scale(0.100000,-0.100000)"
fill="#000000" stroke="none">
<path d="M405 1761 c-22 -10 -51 -29 -64 -41 -86 -83 -82 -271 7 -322 58 -34
133 -12 157 45 18 44 9 126 -17 155 -27 28 -91 46 -135 37 -33 -6 -34 -5 -22
17 23 46 64 79 116 94 29 9 51 20 48 25 -9 14 -46 10 -90 -10z m56 -178 c22
-23 30 -76 17 -114 -10 -29 -52 -59 -83 -59 -46 0 -85 57 -85 126 0 67 101 99
151 47z"/>
<path d="M970 1695 c-7 -8 -18 -15 -25 -15 -6 0 -20 -17 -29 -37 -9 -21 -33
-56 -53 -78 -20 -22 -51 -63 -69 -92 -18 -28 -46 -62 -62 -75 -16 -12 -44 -43
-63 -68 -19 -25 -37 -47 -41 -50 -8 -6 -16 -55 -23 -149 -4 -41 -10 -82 -15
-91 -13 -25 -32 -147 -31 -206 l0 -52 -44 -11 c-43 -11 -95 -60 -95 -90 0 -6
-16 -36 -36 -65 -44 -67 -48 -112 -15 -157 20 -26 22 -35 12 -51 -9 -14 -8
-26 2 -51 20 -48 35 -55 120 -60 61 -4 77 -2 77 9 0 9 11 14 29 14 24 0 28 -3
24 -20 -5 -20 -3 -22 48 -24 33 -1 81 -26 76 -40 -2 -5 -19 -15 -38 -21 -22
-7 -40 -23 -50 -43 -9 -17 -22 -38 -29 -47 -10 -12 -4 -19 36 -45 26 -16 55
-30 63 -30 18 0 79 -21 97 -32 7 -5 37 -6 68 -3 37 3 56 1 56 -6 0 -7 7 -8 18
-4 9 4 31 9 47 11 17 2 41 12 55 23 26 18 50 28 90 36 13 2 34 12 47 21 14 8
33 14 43 11 10 -3 21 0 23 7 3 6 26 17 52 25 25 7 49 20 52 27 3 8 12 14 20
14 10 0 14 9 12 33 -4 46 5 57 46 50 31 -5 35 -3 35 15 0 26 -48 61 -89 65
-23 3 -39 16 -68 55 -40 54 -65 69 -123 74 -19 2 -38 8 -42 13 -15 20 -7 75
21 141 16 38 39 94 51 124 13 30 33 79 45 109 20 47 21 57 10 85 -8 20 -11 58
-9 106 6 105 6 106 42 146 26 29 30 39 22 55 -13 23 -58 25 -86 4 -10 -8 -14
-15 -7 -15 6 0 15 5 18 10 3 6 11 10 17 10 6 0 1 -11 -11 -24 -13 -14 -24 -36
-25 -50 -1 -24 -16 -38 -16 -15 0 5 -4 8 -9 4 -16 -9 -24 15 -10 31 10 13 10
17 0 24 -8 4 -15 25 -17 46 -7 62 -11 86 -24 134 -7 25 -13 52 -15 60 -2 8
-17 46 -34 83 -28 63 -33 68 -58 65 -25 -3 -28 0 -31 32 -2 19 -8 41 -14 47
-14 18 -53 16 -68 -2z m46 -30 c2 -21 -1 -24 -12 -14 -11 9 -14 9 -14 -1 0 -6
9 -14 20 -17 11 -3 20 -12 20 -19 0 -19 -10 -17 -40 5 -21 17 -23 22 -12 45
15 33 37 34 38 1z m-40 -66 c14 -16 14 -19 -4 -37 -14 -14 -17 -24 -10 -36 6
-11 4 -21 -6 -32 -17 -16 -18 -21 -20 -69 -1 -23 -6 -30 -21 -30 -14 0 -19 -6
-17 -20 1 -11 4 -42 5 -70 1 -27 6 -56 10 -62 5 -9 3 -13 -8 -13 -17 0 -37
-39 -42 -80 -1 -14 -5 -40 -9 -58 -5 -27 -4 -31 10 -26 21 8 21 -14 0 -44 -8
-12 -12 -22 -7 -22 16 1 43 27 43 42 0 9 7 21 15 28 21 17 27 64 29 213 1 96
6 138 16 155 8 12 17 22 20 22 10 0 11 -126 1 -152 -6 -15 -6 -29 0 -35 5 -5
10 -21 11 -36 1 -15 6 -27 10 -27 4 0 8 -5 8 -11 0 -5 -5 -7 -11 -3 -6 3 -15
1 -19 -6 -9 -14 -1 -50 11 -50 4 0 11 -16 15 -35 13 -71 28 -48 38 60 2 22 -2
46 -8 54 -8 11 -8 13 2 7 8 -5 12 2 13 23 1 17 2 37 3 44 1 6 -1 26 -6 42 -25
100 -35 210 -19 219 6 4 11 1 11 -7 0 -8 7 -20 15 -27 8 -7 14 -18 13 -24 -1
-6 2 -37 6 -69 7 -49 13 -99 15 -130 1 -5 6 -5 13 -1 6 4 8 3 5 -3 -3 -5 -7
-38 -8 -74 -2 -35 -7 -69 -12 -76 -5 -7 -2 -21 8 -36 13 -20 15 -46 12 -133
-2 -60 -7 -119 -12 -131 -4 -13 -3 -23 2 -23 12 0 56 78 49 88 -2 4 0 14 5 22
13 21 29 -4 21 -33 -7 -28 -12 -33 -109 -129 -69 -68 -81 -84 -72 -99 5 -11
18 -19 28 -19 17 0 18 -3 7 -40 -15 -51 -33 -71 -46 -50 -17 28 -22 1 -5 -34
24 -50 17 -66 -45 -98 -30 -15 -55 -28 -56 -28 0 0 1 13 4 30 3 18 0 30 -7 30
-8 0 -9 5 -2 19 8 15 7 20 -7 26 -16 6 -16 7 2 21 20 14 20 14 1 28 -11 8 -32
12 -47 10 -33 -4 -55 26 -39 53 5 11 5 26 0 42 -6 13 -8 30 -5 38 3 7 1 13 -4
13 -6 0 -5 8 2 19 10 16 9 23 -6 40 -25 28 -24 116 3 207 11 38 22 89 25 114
3 25 13 67 21 94 8 27 15 68 15 90 1 83 40 206 67 206 7 0 14 3 15 8 3 14 8
67 9 99 1 25 5 31 20 30 11 -1 27 -9 35 -18z m-102 -74 c-16 -25 -35 -45 -43
-45 -12 0 -2 17 52 88 5 7 12 10 15 8 2 -3 -9 -26 -24 -51z m260 -35 c22 -68
32 -140 18 -140 -6 0 -14 21 -18 48 -4 26 -15 66 -25 90 -23 52 -23 52 -5 52
8 0 21 -22 30 -50z m-284 -35 c0 -12 -35 -75 -42 -75 -11 0 -47 -37 -41 -43 2
-3 -4 -8 -14 -11 -10 -3 -27 -18 -38 -33 -11 -15 -28 -35 -37 -45 -10 -10 -15
-24 -12 -32 3 -8 1 -17 -5 -20 -11 -7 -3 -37 13 -48 6 -4 6 -18 -1 -41 -7 -23
-7 -39 -1 -45 6 -6 2 -15 -13 -25 -20 -14 -20 -17 -6 -23 22 -8 22 -44 1 -44
-12 0 -14 -4 -7 -12 5 -7 10 -26 11 -42 1 -16 10 -35 19 -42 17 -12 16 -14 -6
-45 -17 -23 -25 -47 -25 -80 -1 -26 -5 -51 -8 -55 -4 -4 -2 -16 4 -28 6 -11
11 -22 10 -23 -7 -10 1 -23 13 -23 8 0 15 -4 15 -10 0 -5 -25 -10 -55 -10 -48
0 -54 -2 -48 -17 4 -10 12 -22 19 -28 14 -11 30 -65 19 -65 -3 0 -15 5 -25 10
-13 7 -21 7 -25 0 -3 -5 -20 -10 -36 -10 -46 0 -58 37 -29 85 13 21 37 43 53
50 36 15 37 18 36 165 -1 14 2 54 5 90 4 36 6 76 6 89 0 13 4 40 10 61 10 38
21 116 25 185 3 53 0 47 43 95 59 68 64 73 111 113 41 34 61 45 61 32z m-57
-145 c-3 -12 -8 -19 -11 -16 -5 6 5 36 12 36 2 0 2 -9 -1 -20z m379 -77 c4
-70 2 -96 -8 -104 -8 -6 -11 -15 -8 -21 4 -5 11 -5 18 1 10 8 15 0 23 -34 8
-37 7 -51 -8 -85 -20 -45 -56 -59 -39 -14 7 16 7 32 0 44 -5 10 -7 25 -4 33 3
8 1 18 -5 21 -6 4 -7 16 -2 29 4 12 8 64 9 115 2 83 7 120 17 110 2 -2 5 -45
7 -95z m-407 10 c-4 -10 -9 -29 -11 -43 -9 -48 -26 -48 -19 0 8 50 12 60 27
60 6 0 7 -8 3 -17z m487 -135 c-7 -7 -12 -8 -12 -2 0 14 12 26 19 19 2 -3 -1
-11 -7 -17z m2 -44 c3 -8 2 -12 -4 -9 -6 3 -10 10 -10 16 0 14 7 11 14 -7z
m-31 -153 c-4 -16 -8 -19 -14 -10 -4 7 -3 19 3 26 14 18 19 12 11 -16z m28
-23 c1 -7 1 -17 0 -21 -1 -4 -3 -16 -4 -26 -2 -11 -8 -25 -14 -33 -6 -7 -14
-24 -18 -37 -4 -13 -11 -19 -16 -14 -9 9 2 61 23 116 11 28 27 36 29 15z m-66
-57 c-3 -6 -14 -11 -23 -11 -15 1 -15 2 2 15 21 16 32 13 21 -4z m-40 -51 c-3
-5 4 -10 15 -10 17 0 20 -4 15 -17 -4 -10 -12 -34 -17 -53 -11 -38 -93 -124
-109 -114 -5 3 -7 20 -4 37 3 18 7 44 9 60 13 79 37 93 33 17 -4 -52 5 -81 17
-61 9 14 15 42 23 104 3 26 10 47 15 47 5 0 6 -4 3 -10z m-585 -25 c0 -2 -38
-48 -85 -101 -47 -54 -85 -103 -85 -109 0 -44 112 -77 255 -76 l100 1 -39 -21
c-22 -12 -57 -21 -84 -21 -34 0 -49 -5 -62 -20 -18 -22 -65 -27 -95 -10 -12 6
-7 9 20 9 19 0 41 5 47 11 9 9 7 12 -10 12 -12 0 -36 9 -54 20 -18 11 -41 20
-50 20 -43 0 -50 80 -12 136 15 21 36 56 48 76 22 40 106 97 106 73z m148
-207 c-5 -13 -38 -20 -38 -8 0 8 17 18 33 19 5 1 7 -4 5 -11z m362 -23 c0 -15
-3 -16 -37 -19 -23 -1 -28 21 -6 27 34 9 43 7 43 -8z m137 -82 c3 -8 -4 -13
-15 -13 -29 0 -50 -39 -41 -75 9 -33 3 -41 -85 -127 -27 -26 -54 -44 -59 -41
-6 3 -7 1 -3 -5 9 -16 -37 -16 -103 0 -55 12 -69 33 -57 82 7 29 -10 45 -19
17 -3 -10 -5 -23 -4 -27 4 -26 -3 -44 -17 -44 -14 0 -16 8 -11 41 3 23 9 45
14 48 5 3 24 25 42 49 56 72 152 109 280 108 50 -1 76 -5 78 -13z m-680 -84
c-12 -7 -27 -7 -45 0 -25 9 -24 9 18 10 36 0 41 -2 27 -10z m698 -88 c-5 -18
-3 -19 22 -9 23 9 36 7 71 -11 24 -12 40 -26 37 -31 -4 -6 -30 -10 -59 -10
-39 0 -69 -8 -112 -30 -75 -38 -115 -41 -62 -5 25 17 38 35 45 62 6 27 15 39
33 44 14 4 26 7 28 8 2 1 1 -8 -3 -18z m-393 -86 c57 -14 120 -25 141 -25 54
0 43 -20 -24 -45 -30 -11 -68 -28 -86 -37 -47 -26 -102 -23 -151 9 -34 23 -39
29 -26 36 10 6 19 6 23 0 11 -18 127 -37 136 -23 3 4 13 6 23 3 10 -2 24 3 31
11 17 20 1 27 -66 31 -27 1 -50 3 -53 5 -3 1 -19 1 -36 0 -18 -1 -36 6 -44 15
-12 15 -12 19 5 31 23 17 5 19 127 -11z"/>
<path d="M895 1420 c3 -5 10 -10 16 -10 5 0 9 5 9 10 0 6 -7 10 -16 10 -8 0
-12 -4 -9 -10z"/>
<path d="M960 1105 c0 -14 4 -25 9 -25 5 0 8 11 7 25 -1 33 -16 33 -16 0z"/>
<path d="M1055 954 c-14 -22 -15 -28 -4 -35 11 -7 11 -9 -2 -9 -21 0 -29 -34
-21 -84 11 -61 28 -55 37 11 7 55 13 143 9 143 -1 0 -9 -12 -19 -26z"/>
<path d="M937 798 c-3 -12 -3 -26 1 -32 3 -6 7 -17 8 -24 7 -43 31 -55 54 -27
10 11 9 18 -3 30 -9 8 -18 28 -22 45 -8 35 -30 40 -38 8z"/>
<path d="M881 734 c0 -11 3 -14 6 -6 3 7 2 16 -1 19 -3 4 -6 -2 -5 -13z"/>
<path d="M964 614 c3 -8 6 -18 6 -20 0 -2 7 -4 15 -4 8 0 15 5 15 10 0 6 1 13
3 17 1 3 -9 8 -22 10 -18 2 -22 0 -17 -13z"/>
<path d="M805 590 c-3 -5 3 -10 15 -10 12 0 18 5 15 10 -3 6 -10 10 -15 10 -5
0 -12 -4 -15 -10z"/>
<path d="M895 306 c-15 -36 -15 -69 2 -64 13 4 53 -26 53 -38 0 -12 29 -28 37
-20 2 2 -7 16 -21 31 -15 16 -31 46 -37 69 -5 23 -12 46 -13 51 -2 6 -11 -7
-21 -29z"/>
<path d="M1040 297 c0 -10 8 -17 18 -17 9 0 13 4 7 8 -5 4 -13 11 -17 16 -5 5
-8 2 -8 -7z"/>
</g>
</svg>
