<?xml version="1.0" standalone="no"?>
<!DOCTYPE svg PUBLIC "-//W3C//DTD SVG 20010904//EN"
 "http://www.w3.org/TR/2001/REC-SVG-20010904/DTD/svg10.dtd">
<svg version="1.0" xmlns="http://www.w3.org/2000/svg"
 width="958.000000pt" height="958.000000pt" viewBox="0 0 958.000000 958.000000"
 preserveAspectRatio="xMidYMid meet">
<metadata>
Created by potrace 1.11, written by Peter Selinger 2001-2013
</metadata>
<g transform="translate(0.000000,958.000000) scale(0.100000,-0.100000)"
fill="#000000" stroke="none">
<path d="M5308 9015 c-2 -2 -25 -6 -53 -10 -105 -13 -379 -120 -505 -196 -8
-5 -26 -14 -39 -19 -13 -6 -42 -25 -65 -43 -23 -17 -47 -36 -55 -42 -19 -13
-163 -157 -218 -217 -56 -62 -60 -64 -91 -34 -84 81 -186 153 -289 205 -66 34
-188 78 -238 87 -16 3 -48 10 -70 16 -22 6 -111 12 -198 14 -134 2 -167 -1
-217 -17 -32 -10 -89 -26 -127 -35 -66 -15 -149 -52 -187 -84 -10 -8 -20 -13
-21 -10 -2 3 -29 -12 -60 -32 -30 -21 -59 -38 -63 -38 -22 -2 -88 -63 -125
-117 -23 -34 -60 -75 -82 -91 -22 -16 -47 -42 -55 -58 -8 -16 -48 -70 -90
-120 -103 -126 -190 -305 -206 -425 -10 -72 2 -66 -171 -84 -83 -9 -128 -36
-238 -144 l-103 -100 -53 15 c-30 9 -81 15 -114 14 -33 -1 -67 -2 -75 -2 -48
-1 -246 -57 -299 -84 -14 -8 -30 -14 -34 -14 -8 0 -141 -65 -205 -100 -86 -47
-168 -115 -304 -252 -82 -82 -148 -153 -148 -158 0 -6 -27 -38 -60 -73 -57
-58 -135 -173 -210 -312 -19 -33 -41 -73 -50 -90 -9 -16 -26 -55 -39 -85 -13
-30 -32 -75 -43 -99 -11 -24 -21 -51 -23 -60 -2 -9 -13 -45 -25 -81 -55 -167
-73 -406 -41 -550 7 -30 14 -66 17 -80 5 -25 48 -139 65 -172 5 -10 9 -22 9
-28 0 -38 313 -311 405 -354 164 -76 255 -110 335 -122 8 -1 40 -7 70 -13 103
-20 308 -29 330 -16 5 3 11 2 14 -3 2 -4 27 -6 55 -5 44 3 50 1 57 -19 3 -13
16 -36 28 -53 11 -16 19 -30 17 -30 -10 0 22 -85 40 -106 57 -66 125 -143 135
-153 6 -6 42 -41 80 -77 122 -116 359 -261 534 -326 36 -13 72 -27 80 -30 8
-3 20 -7 25 -8 6 -2 35 -10 66 -19 84 -25 197 -46 339 -63 70 -9 352 -9 405 0
22 4 56 9 75 12 19 4 76 13 126 20 51 8 105 20 120 26 16 6 31 10 34 11 3 0
32 19 65 43 182 129 225 153 225 125 0 -6 5 -16 10 -23 6 -7 42 -60 81 -119
50 -77 84 -119 122 -146 55 -42 242 -153 261 -156 6 -1 27 -9 46 -18 59 -27
200 -68 255 -75 81 -9 298 -7 365 3 128 20 270 80 410 173 69 46 219 121 241
121 8 0 42 -22 76 -50 34 -27 67 -50 72 -50 6 0 11 -3 11 -7 0 -8 67 -57 79
-59 3 0 13 -3 21 -6 8 -3 62 -20 120 -38 58 -17 123 -38 145 -45 22 -8 56 -18
75 -23 19 -6 94 -28 165 -49 129 -39 131 -40 285 -38 141 2 243 10 260 20 4 2
17 6 31 9 82 15 218 79 265 125 16 15 63 56 104 91 138 117 272 247 315 305
17 22 41 51 55 65 33 33 90 100 114 133 10 15 22 25 26 22 3 -2 22 -7 41 -10
19 -3 48 -9 64 -12 17 -3 102 -6 190 -6 143 -1 170 2 255 26 53 14 109 31 124
37 16 6 45 13 65 16 20 3 74 25 121 48 233 119 309 161 350 194 25 20 50 40
55 44 6 4 23 19 39 33 16 14 51 42 77 62 31 23 53 51 65 79 10 24 21 44 24 44
4 0 24 16 46 35 21 19 42 35 45 35 6 0 40 63 44 80 1 3 6 16 12 30 6 14 28 66
48 115 20 50 46 109 56 133 23 50 34 107 44 217 4 44 9 94 11 110 19 139 22
216 11 280 -3 22 -9 56 -12 75 -3 19 -8 46 -11 58 -3 13 -7 42 -10 64 -4 22
-16 61 -29 87 -12 25 -41 102 -64 171 -23 69 -45 130 -49 135 -4 6 -83 58
-177 115 -93 57 -172 106 -175 110 -3 3 -26 16 -52 30 -27 13 -49 29 -49 35
-2 16 7 80 11 80 1 0 3 7 5 15 2 8 8 38 15 65 17 74 19 84 24 153 2 35 6 65 8
68 6 5 1 167 -7 229 -18 154 -46 255 -87 320 -44 68 -78 127 -78 135 0 6 -4
10 -9 10 -5 0 -11 8 -14 18 -4 9 -18 37 -33 62 -34 56 -84 157 -84 170 0 5
-31 40 -69 77 -58 57 -84 74 -163 107 -51 22 -115 49 -143 61 -54 24 -167 72
-200 85 -11 4 -58 18 -105 30 -47 13 -104 29 -128 36 -61 20 -117 28 -202 28
-78 0 -207 -10 -231 -18 -8 -3 -30 -7 -49 -10 -19 -3 -46 -8 -60 -11 -14 -3
-38 -7 -55 -10 -16 -3 -54 -10 -83 -16 -58 -12 -36 -17 -314 71 -69 22 -118
31 -170 32 -40 0 -78 5 -85 10 -6 5 -24 35 -40 66 -25 51 -94 127 -231 254
-25 23 -168 88 -194 88 -5 0 -27 9 -51 20 -23 11 -58 22 -77 24 -34 5 -67 11
-120 22 -14 3 -37 7 -53 10 -15 2 -39 6 -55 10 -113 25 -264 42 -374 42 -70 0
-128 -2 -130 -3z"/>
<path d="M3504 3701 c-3 -3 -9 -6 -12 -6 -27 0 -120 -47 -187 -93 -44 -31
-102 -71 -130 -90 -27 -20 -52 -39 -55 -43 -3 -5 -14 -8 -25 -8 -20 1 -129 -7
-215 -15 -56 -6 -125 -21 -213 -47 -48 -14 -78 -30 -100 -53 -18 -18 -86 -91
-152 -161 -66 -70 -126 -133 -132 -141 -7 -7 -13 -15 -13 -19 0 -6 -54 -67
-113 -126 -43 -44 -53 -126 -29 -243 21 -105 98 -255 141 -277 14 -8 56 -31
93 -51 74 -40 91 -44 188 -53 36 -3 88 -8 115 -11 28 -2 70 -7 95 -9 35 -3 48
-10 64 -32 56 -79 204 -194 239 -185 4 1 7 -3 7 -10 0 -6 3 -9 6 -6 3 3 29 0
58 -8 110 -29 175 -19 537 76 24 7 61 35 111 84 42 41 84 79 95 84 11 6 78 14
149 17 199 9 204 10 284 35 93 29 228 129 248 184 8 20 35 53 65 78 52 43 80
74 83 93 2 5 13 37 26 70 19 48 22 70 17 110 -14 107 -20 151 -24 170 -3 11
-7 37 -10 58 -3 21 -12 45 -20 53 -8 8 -22 28 -32 44 -9 17 -21 30 -25 30 -4
0 -8 5 -8 12 0 20 -100 106 -154 132 -43 21 -63 27 -116 39 -3 0 -27 6 -55 12
-50 12 -174 13 -230 1 -30 -5 -31 -4 -75 87 l-45 92 -76 30 c-42 17 -94 37
-115 46 -37 16 -73 30 -84 34 -3 1 -18 7 -34 14 -29 12 -131 13 -142 2z"/>
<path d="M2797 2024 c-2 -2 -95 -13 -172 -19 -78 -7 -93 -13 -171 -63 -44 -28
-78 -58 -85 -74 -8 -20 -19 -28 -38 -29 -14 0 -46 -2 -71 -4 -59 -6 -171 -15
-239 -20 -52 -4 -117 -28 -133 -50 -5 -7 -8 -7 -8 0 0 7 -3 7 -8 0 -4 -6 -31
-30 -60 -54 -29 -24 -74 -71 -99 -105 -26 -33 -58 -70 -71 -81 -32 -27 -115
-132 -135 -171 -9 -18 -15 -41 -12 -52 2 -11 6 -73 10 -137 6 -113 7 -119 42
-171 31 -47 42 -56 92 -71 31 -10 59 -21 62 -26 3 -5 10 -8 15 -8 5 0 40 -9
77 -21 59 -19 79 -33 151 -103 107 -102 101 -97 187 -141 114 -57 252 -82 334
-61 11 2 40 8 65 13 25 4 47 8 50 9 3 1 26 5 52 9 25 5 55 15 65 25 10 9 43
35 74 58 58 43 68 46 224 59 39 4 81 8 95 9 14 2 41 3 60 4 39 1 55 14 208
174 50 54 92 101 92 106 0 5 32 41 70 80 39 40 71 80 71 89 7 85 5 105 -17
153 -36 78 -61 107 -112 132 -225 110 -270 138 -281 169 -6 17 -11 41 -11 53
0 55 -82 171 -147 208 -12 7 -54 35 -94 62 -43 30 -84 50 -101 51 -16 0 -29
-1 -31 -2z"/>
</g>
</svg>
